<svg width="22" height="25" viewBox="0 0 22 25" fill="none" xmlns="http://www.w3.org/2000/svg">
<path fill-rule="evenodd" clip-rule="evenodd" d="M5 0H17C19.7614 0 22 2.23858 22 5V17C22 19.7614 19.7614 22 17 22H7L0 25V5C0 2.23858 2.23858 0 5 0ZM13.5002 9C14.3286 9 15.0002 8.32843 15.0002 7.5C15.0002 6.67157 14.3286 6 13.5002 6C12.6719 6 12.0002 6.67157 12.0002 7.5C12.0002 8.32843 12.6719 9 13.5002 9ZM11 17C13.8079 17.0001 16.6158 15.4356 17.9194 12.3939L16.0811 11.6061C15.1238 13.8397 13.0619 15.0001 11 15C8.93828 14.9999 6.87661 13.8395 5.91943 11.6061L4.08105 12.3939C5.38461 15.4355 8.19228 16.9999 11 17ZM10.0002 7.5C10.0002 8.32843 9.32861 9 8.50024 9C7.67188 9 7.00024 8.32843 7.00024 7.5C7.00024 6.67157 7.67188 6 8.50024 6C9.32861 6 10.0002 6.67157 10.0002 7.5Z" fill="#D47164"/>
</svg>
