<svg width="10" height="9" viewBox="0 0 10 9" fill="none" xmlns="http://www.w3.org/2000/svg">
<path d="M1.70711 4.29289C1.31658 3.90237 0.683417 3.90237 0.292893 4.29289C-0.0976311 4.68342 -0.0976311 5.31658 0.292893 5.70711L1.70711 4.29289ZM4 8L3.29289 8.70711C3.50075 8.91496 3.78953 9.02084 4.08248 8.99659C4.37543 8.97235 4.64288 8.82044 4.81373 8.58124L4 8ZM9.81373 1.58124C10.1347 1.13183 10.0307 0.507276 9.58124 0.186267C9.13183 -0.134742 8.50728 -0.0306507 8.18627 0.418762L9.81373 1.58124ZM0.292893 5.70711L3.29289 8.70711L4.70711 7.29289L1.70711 4.29289L0.292893 5.70711ZM4.81373 8.58124L9.81373 1.58124L8.18627 0.418762L3.18627 7.41876L4.81373 8.58124Z" fill="white"/>
</svg>
