<svg width="17" height="17" viewBox="0 0 17 17" fill="none" xmlns="http://www.w3.org/2000/svg">
<path fill-rule="evenodd" clip-rule="evenodd" d="M1.21915 15.2368C0.832062 15.6239 0.832062 16.2515 1.21915 16.6385C1.60623 17.0256 2.23382 17.0256 2.6209 16.6385L8.92879 10.3307L15.2367 16.6386C15.6238 17.0257 16.2514 17.0257 16.6385 16.6386C17.0256 16.2515 17.0256 15.6239 16.6385 15.2368L10.3305 8.92889L16.6385 2.62096C17.0256 2.23388 17.0256 1.60629 16.6385 1.21921C16.2514 0.832123 15.6238 0.832123 15.2367 1.21921L8.92879 7.52714L2.6209 1.21925C2.23382 0.832168 1.60623 0.832168 1.21915 1.21925C0.832062 1.60634 0.832062 2.23393 1.21915 2.62101L7.52703 8.92889L1.21915 15.2368Z" fill="#D47164"/>
</svg>
