<svg width="139" height="70" viewBox="0 0 139 70" fill="none" xmlns="http://www.w3.org/2000/svg">
<path d="M0.490723 13.0001V8.0001H17.4907V13.0001H11.7407V43.0001H6.24072V13.0001H0.490723Z" fill="#F3C6C0"/>
<path d="M30.413 13.0001V22.7501H37.963V27.7501H30.413V38.0001H39.913V43.0001H24.913V8.0001H39.913V13.0001H30.413ZM32.863 0.600098H38.263L33.163 6.1501H29.463L32.863 0.600098Z" fill="#F3C6C0"/>
<path d="M65.4212 43.0001H59.8212C59.4879 42.0001 59.3212 40.5668 59.3212 38.7001V33.2001C59.3212 31.6001 59.0379 30.4668 58.4712 29.8001C57.9045 29.1001 56.9879 28.7501 55.7212 28.7501H53.8212V43.0001H48.3212V8.0001H56.6212C59.4545 8.0001 61.5212 8.66677 62.8212 10.0001C64.1212 11.3001 64.7712 13.3168 64.7712 16.0501V18.8001C64.7712 22.4001 63.5712 24.7668 61.1712 25.9001C63.6045 26.9334 64.8212 29.4168 64.8212 33.3501V38.7501C64.8212 40.6501 65.0212 42.0668 65.4212 43.0001ZM56.4712 13.0001H53.8212V23.7501H55.9712C57.0712 23.7501 57.8879 23.4668 58.4212 22.9001C58.9879 22.3334 59.2712 21.3834 59.2712 20.0501V16.6001C59.2712 14.2001 58.3379 13.0001 56.4712 13.0001Z" fill="#F3C6C0"/>
<path d="M78.9384 13.0001V22.7501H86.4884V27.7501H78.9384V38.0001H88.4384V43.0001H73.4384V8.0001H88.4384V13.0001H78.9384ZM81.3884 0.600098H86.7884L81.6884 6.1501H77.9884L81.3884 0.600098Z" fill="#F3C6C0"/>
<path d="M96.1466 16.4001C96.1466 13.5668 96.8299 11.4001 98.1966 9.9001C99.5632 8.36677 101.58 7.6001 104.247 7.6001C106.913 7.6001 108.93 8.36677 110.297 9.9001C111.663 11.4001 112.347 13.5668 112.347 16.4001V17.5001H107.147V16.0501C107.147 13.7501 106.23 12.6001 104.397 12.6001C102.563 12.6001 101.647 13.7501 101.647 16.0501C101.647 17.0168 101.847 17.9334 102.247 18.8001C102.647 19.6668 103.163 20.4501 103.797 21.1501C104.43 21.8501 105.13 22.5501 105.897 23.2501C106.663 23.9168 107.413 24.6334 108.147 25.4001C108.913 26.1334 109.613 26.9334 110.247 27.8001C110.88 28.6334 111.397 29.6334 111.797 30.8001C112.197 31.9668 112.397 33.2334 112.397 34.6001C112.397 37.4334 111.697 39.6168 110.297 41.1501C108.897 42.6501 106.863 43.4001 104.197 43.4001C101.53 43.4001 99.4966 42.6501 98.0966 41.1501C96.6966 39.6168 95.9966 37.4334 95.9966 34.6001V32.4501H101.197V34.9501C101.197 37.2168 102.147 38.3501 104.047 38.3501C105.947 38.3501 106.897 37.2168 106.897 34.9501C106.897 33.6501 106.53 32.4334 105.797 31.3001C105.063 30.1334 104.163 29.0834 103.097 28.1501C102.063 27.2168 101.013 26.2501 99.9466 25.2501C98.8799 24.2168 97.9799 22.9501 97.2466 21.4501C96.5133 19.9168 96.1466 18.2334 96.1466 16.4001Z" fill="#F3C6C0"/>
<path d="M132.748 8.0001L138.348 43.0001H132.798L131.848 36.6501H125.098L124.148 43.0001H119.098L124.698 8.0001H132.748ZM128.448 14.2001L125.798 31.9001H131.098L128.448 14.2001Z" fill="#F3C6C0"/>
<path d="M14.854 69.0001V58.5041H16.454L18.47 64.1041C18.598 64.4668 18.7206 64.8348 18.838 65.2081C18.966 65.5708 19.094 65.9334 19.222 66.2961H19.286C19.414 65.9334 19.5313 65.5708 19.638 65.2081C19.7553 64.8348 19.878 64.4668 20.006 64.1041L21.99 58.5041H23.606V69.0001H22.358V63.2241C22.358 62.7654 22.3793 62.2481 22.422 61.6721C22.4646 61.0961 22.502 60.5788 22.534 60.1201H22.47L21.638 62.5041L19.654 67.9441H18.774L16.79 62.5041L15.958 60.1201H15.894C15.926 60.5788 15.958 61.0961 15.99 61.6721C16.0326 62.2481 16.054 62.7654 16.054 63.2241V69.0001H14.854Z" fill="#F3C6C0"/>
<path d="M28.079 69.0001V58.5041H34.127V59.6241H29.407V62.9201H33.391V64.0561H29.407V67.8641H34.287V69.0001H28.079ZM30.911 57.8481L30.319 57.1761L32.591 55.1281L33.343 56.0081L30.911 57.8481Z" fill="#F3C6C0"/>
<path d="M38.1165 69.0001V58.5041H40.7405C42.3618 58.5041 43.5938 58.9574 44.4365 59.8641C45.2791 60.7601 45.7005 62.0401 45.7005 63.7041C45.7005 65.3788 45.2791 66.6801 44.4365 67.6081C43.5938 68.5361 42.3831 69.0001 40.8045 69.0001H38.1165ZM39.4445 67.9121H40.6445C41.8711 67.9121 42.7885 67.5441 43.3965 66.8081C44.0151 66.0721 44.3245 65.0374 44.3245 63.7041C44.3245 62.3814 44.0151 61.3681 43.3965 60.6641C42.7885 59.9494 41.8711 59.5921 40.6445 59.5921H39.4445V67.9121Z" fill="#F3C6C0"/>
<path d="M49.5602 69.0001V58.5041H50.8882V69.0001H49.5602Z" fill="#F3C6C0"/>
<path d="M59.0913 69.1921C58.014 69.1921 57.1127 68.8614 56.3873 68.2001C55.6727 67.5281 55.3153 66.3494 55.3153 64.6641V58.5041H56.6433V64.6961C56.6433 65.9654 56.878 66.8401 57.3473 67.3201C57.8167 67.7894 58.398 68.0241 59.0913 68.0241C59.7847 68.0241 60.3713 67.7894 60.8513 67.3201C61.3313 66.8401 61.5713 65.9654 61.5713 64.6961V58.5041H62.8513V64.6641C62.8513 66.3494 62.494 67.5281 61.7793 68.2001C61.0647 68.8614 60.1687 69.1921 59.0913 69.1921Z" fill="#F3C6C0"/>
<path d="M67.2758 69.0001V58.5041H68.8758L70.8918 64.1041C71.0198 64.4668 71.1425 64.8348 71.2598 65.2081C71.3878 65.5708 71.5158 65.9334 71.6438 66.2961H71.7078C71.8358 65.9334 71.9532 65.5708 72.0598 65.2081C72.1772 64.8348 72.2998 64.4668 72.4278 64.1041L74.4118 58.5041H76.0278V69.0001H74.7798V63.2241C74.7798 62.7654 74.8012 62.2481 74.8438 61.6721C74.8865 61.0961 74.9238 60.5788 74.9558 60.1201H74.8918L74.0598 62.5041L72.0758 67.9441H71.1958L69.2118 62.5041L68.3798 60.1201H68.3158C68.3478 60.5788 68.3798 61.0961 68.4118 61.6721C68.4545 62.2481 68.4758 62.7654 68.4758 63.2241V69.0001H67.2758Z" fill="#F3C6C0"/>
<path d="M85.304 69.0001V58.5041H88.296C89.4693 58.5041 90.4186 58.7334 91.144 59.1921C91.8693 59.6401 92.232 60.4401 92.232 61.5921C92.232 62.6908 91.8746 63.5068 91.16 64.0401C90.4453 64.5734 89.512 64.8401 88.36 64.8401H86.632V69.0001H85.304ZM86.632 63.7521H88.2C90.0026 63.7521 90.904 63.0321 90.904 61.5921C90.904 60.8348 90.6693 60.3121 90.2 60.0241C89.7413 59.7254 89.0533 59.5761 88.136 59.5761H86.632V63.7521Z" fill="#F3C6C0"/>
<path d="M99.6945 69.1921C98.6171 69.1921 97.7158 68.8614 96.9905 68.2001C96.2758 67.5281 95.9185 66.3494 95.9185 64.6641V58.5041H97.2465V64.6961C97.2465 65.9654 97.4811 66.8401 97.9505 67.3201C98.4198 67.7894 99.0011 68.0241 99.6945 68.0241C100.388 68.0241 100.974 67.7894 101.454 67.3201C101.934 66.8401 102.174 65.9654 102.174 64.6961V58.5041H103.454V64.6641C103.454 66.3494 103.097 67.5281 102.382 68.2001C101.668 68.8614 100.772 69.1921 99.6945 69.1921Z" fill="#F3C6C0"/>
<path d="M109.207 63.4801H110.967C112.663 63.4801 113.511 62.8028 113.511 61.4481C113.511 60.7654 113.292 60.2854 112.855 60.0081C112.418 59.7201 111.788 59.5761 110.967 59.5761H109.207V63.4801ZM109.207 69.0001H107.879V58.5041H111.159C112.236 58.5041 113.116 58.7228 113.799 59.1601C114.492 59.5974 114.839 60.3601 114.839 61.4481C114.839 62.2694 114.62 62.9254 114.183 63.4161C113.756 63.9068 113.186 64.2428 112.471 64.4241L115.143 69.0001H113.639L111.111 64.5681H109.207V69.0001Z" fill="#F3C6C0"/>
<path d="M118.588 69.0001V58.5041H124.636V59.6241H119.916V62.9201H123.9V64.0561H119.916V67.8641H124.796V69.0001H118.588Z" fill="#F3C6C0"/>
</svg>
