<svg width="16" height="13" viewBox="0 0 16 13" fill="none" xmlns="http://www.w3.org/2000/svg">
<path fill-rule="evenodd" clip-rule="evenodd" d="M15.7609 6.89163L14.1989 5.19363C14.0954 5.09176 13.956 5.03467 13.8109 5.03467C13.6657 5.03467 13.5263 5.09176 13.4229 5.19363L11.8589 6.89163C11.8078 6.94213 11.7673 7.00224 11.7397 7.0685C11.712 7.13475 11.6978 7.20584 11.6978 7.27763C11.6978 7.34943 11.712 7.42051 11.7397 7.48676C11.7673 7.55302 11.8078 7.61314 11.8589 7.66363H13.1529C12.9108 8.57299 12.433 9.40233 11.7677 10.0678C11.1024 10.7333 10.2732 11.2113 9.36386 11.4536C8.30123 11.7316 7.17897 11.6776 6.14798 11.2987C5.11699 10.9199 4.22671 10.2345 3.59686 9.33463L2.50586 10.0856C3.29176 11.2084 4.40269 12.0636 5.68919 12.5361C6.97569 13.0087 8.37604 13.0758 9.70186 12.7286C10.8943 12.4125 11.9755 11.7716 12.8253 10.8774C13.675 9.98313 14.2599 8.87059 14.5149 7.66363H15.7599C15.8108 7.61313 15.8513 7.55305 15.879 7.48684C15.9066 7.42063 15.9209 7.3496 15.921 7.27784C15.9211 7.20608 15.907 7.13502 15.8795 7.06873C15.852 7.00245 15.8117 6.94226 15.7609 6.89163Z" fill="#1078D8"/>
<path fill-rule="evenodd" clip-rule="evenodd" d="M4.44009 6.00478C4.49113 5.95429 4.53165 5.89417 4.5593 5.82791C4.58695 5.76166 4.60119 5.69058 4.60119 5.61878C4.60119 5.54699 4.58695 5.4759 4.5593 5.40965C4.53165 5.34339 4.49113 5.28328 4.44009 5.23278H2.98309C3.23097 4.3349 3.70943 3.5175 4.37096 2.86176C5.0325 2.20602 5.85407 1.73475 6.75409 1.49478C7.81676 1.2165 8.93919 1.27062 9.97015 1.64986C11.0011 2.02909 11.8911 2.71521 12.5201 3.61578L13.6121 2.86378C12.826 1.74036 11.7146 0.884656 10.4276 0.411783C9.14055 -0.0610907 7.73956 -0.128445 6.41309 0.21878C5.22989 0.533491 4.15614 1.1678 3.30948 2.0522C2.46283 2.93661 1.87593 4.03699 1.61309 5.23278H0.161093C0.110056 5.28328 0.0695403 5.34339 0.041889 5.40965C0.0142376 5.4759 0 5.54699 0 5.61878C0 5.69058 0.0142376 5.76166 0.041889 5.82791C0.0695403 5.89417 0.110056 5.95429 0.161093 6.00478L1.79909 7.64178C1.90254 7.74365 2.04191 7.80074 2.18709 7.80074C2.33228 7.80074 2.47164 7.74365 2.57509 7.64178L4.44009 6.00478Z" fill="#1078D8"/>
</svg>
