<svg width="33" height="9" viewBox="0 0 33 9" fill="none" xmlns="http://www.w3.org/2000/svg">
<g clip-path="url(#clip0)">
<rect width="33" height="9" fill="white"/>
<path d="M1309.5 10V84C1309.5 89.2467 1305.25 93.5 1300 93.5H33.3003C31.2641 93.5 29.2818 92.8458 27.6456 91.6338L22.7499 88.0073C19.0371 85.2571 13.9629 85.2571 10.2501 88.0073L5.35436 91.6338C3.71818 92.8458 1.73588 93.5 -0.300301 93.5H-68C-73.2467 93.5 -77.5 89.2467 -77.5 84V10C-77.5 4.75329 -73.2467 0.5 -68 0.5H-0.300301C1.73588 0.5 3.71818 1.15422 5.35436 2.36621L10.2501 5.99268C13.9629 8.74288 19.0371 8.74288 22.7499 5.99269L27.6456 2.36621C29.2818 1.15422 31.2641 0.5 33.3003 0.5H1300C1305.25 0.5 1309.5 4.7533 1309.5 10Z" fill="#FAFCFF" stroke="#E7F1FF"/>
</g>
<defs>
<clipPath id="clip0">
<rect width="33" height="9" fill="white"/>
</clipPath>
</defs>
</svg>
