<?xml version="1.0" standalone="no"?>
<!DOCTYPE svg PUBLIC "-//W3C//DTD SVG 20010904//EN"
 "http://www.w3.org/TR/2001/REC-SVG-20010904/DTD/svg10.dtd">
<svg version="1.0" xmlns="http://www.w3.org/2000/svg"
 width="700.000000pt" height="700.000000pt" viewBox="0 0 700.000000 700.000000"
 preserveAspectRatio="xMidYMid meet">
<metadata>
Created by potrace 1.11, written by Peter Selinger 2001-2013
</metadata>
<g transform="translate(0.000000,700.000000) scale(0.100000,-0.100000)"
fill="#000000" stroke="none">
<path d="M1105 6984 c-389 -70 -706 -281 -907 -604 -70 -112 -142 -285 -163
-391 -12 -59 -17 -88 -25 -139 -5 -30 -9 -1272 -9 -2760 -1 -2907 -4 -2742 49
-2854 29 -59 110 -143 175 -179 109 -61 -95 -58 2902 -54 1506 1 2752 6 2768
10 17 5 50 13 75 18 126 27 317 105 404 164 20 14 41 25 46 25 4 0 10 3 12 8
2 4 28 25 58 48 71 53 182 164 234 234 22 30 43 57 46 60 14 13 73 117 104
183 48 103 82 205 102 315 2 12 7 34 11 50 13 48 15 5459 3 5527 -32 164 -149
289 -320 341 -69 21 -5448 19 -5565 -2z m5010 -423 c7 -1 10 -296 9 -868 -1
-478 -2 -871 -3 -875 0 -3 -99 -6 -218 -5 l-217 2 -49 130 c-27 72 -55 144
-62 160 -8 17 -23 57 -36 90 -12 33 -30 79 -40 102 -11 23 -19 45 -19 48 0 4
-20 58 -45 121 -25 63 -55 139 -66 169 l-20 55 -705 0 c-556 0 -704 -3 -705
-12 -4 -71 0 -4680 4 -4684 3 -3 90 -16 193 -30 103 -13 204 -26 223 -29 20
-3 54 -8 76 -11 86 -10 150 -18 225 -29 14 -2 52 -7 85 -11 33 -3 61 -7 63 -9
6 -5 5 -426 -1 -432 -5 -4 -2470 -8 -2594 -4 l-23 1 0 220 0 220 28 1 c15 0
34 2 43 4 8 1 41 6 71 9 31 4 65 8 76 11 11 2 48 6 81 10 33 3 68 8 79 10 10
2 43 6 73 10 30 3 61 8 69 10 8 2 42 6 75 10 33 3 67 8 75 10 8 2 46 6 83 10
79 7 108 12 115 20 4 3 7 4574 3 4671 l-1 22 -704 1 -704 2 -32 -83 c-18 -46
-47 -123 -66 -173 -19 -49 -39 -99 -44 -110 -4 -11 -51 -130 -103 -265 l-94
-245 -219 0 -219 0 0 870 c-1 479 2 872 6 875 5 4 5188 5 5234 1z"/>
</g>
</svg>
