<svg width="7" height="29" viewBox="0 0 7 29" fill="none" xmlns="http://www.w3.org/2000/svg">
<g clip-path="url(#clip0)">
<rect width="7" height="29" fill="white"/>
<path d="M30 -149.5H287C303.292 -149.5 316.5 -136.292 316.5 -120V-0.612167C316.5 2.06511 315.486 4.6431 313.663 6.60338C309.523 11.0538 309.523 17.9462 313.663 22.3966C315.486 24.3569 316.5 26.9349 316.5 29.6122V179.388C316.5 182.065 315.486 184.643 313.663 186.603C309.523 191.054 309.523 197.946 313.663 202.397C315.486 204.357 316.5 206.935 316.5 209.612V358C316.5 374.292 303.292 387.5 287 387.5H30C13.7076 387.5 0.5 374.292 0.5 358V209.612C0.5 206.935 1.51368 204.357 3.33718 202.397C7.47717 197.946 7.47717 191.054 3.33718 186.603C1.51368 184.643 0.5 182.065 0.5 179.388V29.6122C0.5 26.9349 1.51368 24.3569 3.33718 22.3966C7.47717 17.9462 7.47717 11.0538 3.33718 6.60338C1.51368 4.6431 0.5 2.06511 0.5 -0.612167V-120C0.5 -136.292 13.7076 -149.5 30 -149.5Z" fill="#FAFCFF" stroke="#E7F1FF"/>
</g>
<defs>
<clipPath id="clip0">
<rect width="7" height="29" fill="white"/>
</clipPath>
</defs>
</svg>
