<svg width="19" height="17" viewBox="0 0 19 17" fill="none" xmlns="http://www.w3.org/2000/svg">
<path fill-rule="evenodd" clip-rule="evenodd" d="M2.08 5.29838H2C1.46957 5.29838 0.960859 5.50909 0.585786 5.88416C0.210714 6.25924 0 6.76794 0 7.29838V9.29838C0 9.82881 0.210714 10.3375 0.585786 10.7126C0.960859 11.0877 1.46957 11.2984 2 11.2984H2.08C2.36856 11.2983 2.65372 11.3606 2.91593 11.4811C3.17813 11.6015 3.41115 11.7773 3.599 11.9964L7.241 16.2464C7.845 16.9504 9 16.5234 9 15.5954V1.00138C9 0.0733781 7.845 -0.353622 7.24 0.351378L3.6 4.59938C3.41213 4.81873 3.17899 4.99479 2.9166 5.11545C2.65421 5.23611 2.3688 5.29852 2.08 5.29838ZM15.636 0.573378C15.5414 0.480106 15.4291 0.406632 15.3057 0.35725C15.1823 0.307867 15.0504 0.283566 14.9175 0.285766C14.7847 0.287967 14.6536 0.316624 14.5319 0.370065C14.4102 0.423505 14.3005 0.500657 14.209 0.597011C14.1174 0.693366 14.0461 0.806991 13.999 0.931247C13.9519 1.0555 13.93 1.1879 13.9347 1.3207C13.9394 1.45349 13.9704 1.58403 14.0261 1.70468C14.0818 1.82533 14.161 1.93367 14.259 2.02338C17.914 5.49538 17.914 11.1014 14.259 14.5734C14.161 14.6631 14.0818 14.7714 14.0261 14.8921C13.9704 15.0127 13.9394 15.1433 13.9347 15.2761C13.93 15.4089 13.9519 15.5413 13.999 15.6655C14.0461 15.7898 14.1174 15.9034 14.209 15.9997C14.3005 16.0961 14.4102 16.1733 14.5319 16.2267C14.6536 16.2801 14.7847 16.3088 14.9175 16.311C15.0504 16.3132 15.1823 16.2889 15.3057 16.2395C15.4291 16.1901 15.5414 16.1166 15.636 16.0234C20.121 11.7634 20.121 4.83338 15.636 0.573378ZM12.689 3.37338C12.4967 3.19064 12.2397 3.09178 11.9745 3.09853C11.7094 3.10528 11.4577 3.2171 11.275 3.40938C11.0923 3.60166 10.9934 3.85866 11.0002 4.12383C11.0069 4.38901 11.1187 4.64064 11.311 4.82338C13.338 6.74838 13.338 9.84838 11.311 11.7734C11.2158 11.8639 11.1393 11.9722 11.086 12.0922C11.0327 12.2123 11.0035 12.3416 11.0002 12.4729C10.9968 12.6042 11.0194 12.7349 11.0665 12.8575C11.1137 12.9801 11.1845 13.0922 11.275 13.1874C11.4577 13.3797 11.7094 13.4915 11.9745 13.4982C12.1058 13.5016 12.2365 13.479 12.3591 13.4319C12.4817 13.3847 12.5938 13.3139 12.689 13.2234C15.546 10.5094 15.546 6.08738 12.689 3.37338Z" fill="white"/>
</svg>
