<svg width="29" height="27" viewBox="0 0 29 27" fill="none" xmlns="http://www.w3.org/2000/svg">
<path d="M18.4929 8.29985L16.6225 2.54225C15.9544 0.485911 13.0456 0.485919 12.3775 2.54225L10.5071 8.29985C10.4761 8.39546 10.3871 8.46003 10.2868 8.46003H4.23403C2.07178 8.46003 1.17365 11.2269 2.92222 12.4975L7.81902 16.0559C7.90023 16.1149 7.9343 16.2196 7.90323 16.3153L6.03282 22.0729C5.36502 24.1285 7.7176 25.8394 9.4671 24.5681L14.3639 21.0097C14.4451 20.9507 14.5549 20.9507 14.6361 21.0097L19.5329 24.5681C21.2824 25.8394 23.635 24.1285 22.9672 22.0729L21.0968 16.3153C21.0657 16.2196 21.0998 16.1149 21.181 16.0559L26.0778 12.4975C27.8263 11.2269 26.9282 8.46003 24.766 8.46003H18.7132C18.6129 8.46003 18.5239 8.39546 18.4929 8.29985Z" fill="#DDDDDD" stroke="white" stroke-width="2"/>
</svg>
